<svg width="20" height="20" viewBox="0 0 20 20" fill="none" xmlns="http://www.w3.org/2000/svg">
<g id="Icon Right">
<g id="Shape">
<path d="M8.33317 8.33337C8.79341 8.33337 9.1665 8.70647 9.1665 9.16671V14.1667C9.1665 14.6269 8.79341 15 8.33317 15C7.87293 15 7.49984 14.6269 7.49984 14.1667V9.16671C7.49984 8.70647 7.87293 8.33337 8.33317 8.33337Z" fill="#2D3648"/>
<path d="M12.4998 14.1667V9.16671C12.4998 8.70647 12.1267 8.33337 11.6665 8.33337C11.2063 8.33337 10.8332 8.70647 10.8332 9.16671V14.1667C10.8332 14.6269 11.2063 15 11.6665 15C12.1267 15 12.4998 14.6269 12.4998 14.1667Z" fill="#2D3648"/>
<path fill-rule="evenodd" clip-rule="evenodd" d="M5.83317 4.16671V3.33337C5.83317 2.67033 6.09656 2.03445 6.5654 1.56561C7.03425 1.09677 7.67013 0.833374 8.33317 0.833374H11.6665C12.3295 0.833374 12.9654 1.09677 13.4343 1.56561C13.9031 2.03445 14.1665 2.67033 14.1665 3.33337V4.16671H17.4998C17.9601 4.16671 18.3332 4.5398 18.3332 5.00004C18.3332 5.46028 17.9601 5.83337 17.4998 5.83337H16.6665V16.6667C16.6665 17.3297 16.4031 17.9656 15.9343 18.4345C15.4654 18.9033 14.8295 19.1667 14.1665 19.1667H5.83317C5.17013 19.1667 4.53424 18.9033 4.0654 18.4345C3.59656 17.9656 3.33317 17.3297 3.33317 16.6667V5.83337H2.49984C2.0396 5.83337 1.6665 5.46028 1.6665 5.00004C1.6665 4.5398 2.0396 4.16671 2.49984 4.16671H5.83317ZM7.74392 2.74412C7.9002 2.58784 8.11216 2.50004 8.33317 2.50004H11.6665C11.8875 2.50004 12.0995 2.58784 12.2558 2.74412C12.412 2.9004 12.4998 3.11236 12.4998 3.33337V4.16671H7.49984V3.33337C7.49984 3.11236 7.58763 2.9004 7.74392 2.74412ZM4.99984 5.83337V16.6667C4.99984 16.8877 5.08763 17.0997 5.24392 17.256C5.4002 17.4122 5.61216 17.5 5.83317 17.5H14.1665C14.3875 17.5 14.5995 17.4122 14.7558 17.256C14.912 17.0997 14.9998 16.8877 14.9998 16.6667V5.83337H4.99984Z" fill="#2D3648"/>
</g>
</g>
</svg>
