<svg width="34" height="34" viewBox="0 0 34 34" fill="none" xmlns="http://www.w3.org/2000/svg">
<path d="M10.8167 15.8166C10.665 15.9752 10.546 16.1621 10.4667 16.3666C10.3 16.7724 10.3 17.2275 10.4667 17.6333C10.546 17.8379 10.665 18.0248 10.8167 18.1833L15.8167 23.1833C16.1305 23.4972 16.5562 23.6735 17 23.6735C17.4439 23.6735 17.8695 23.4972 18.1834 23.1833C18.4972 22.8695 18.6735 22.4438 18.6735 22C18.6735 21.5561 18.4972 21.1305 18.1834 20.8166L16.0167 18.6666H22C22.4421 18.6666 22.866 18.4911 23.1786 18.1785C23.4911 17.8659 23.6667 17.442 23.6667 17C23.6667 16.558 23.4911 16.134 23.1786 15.8215C22.866 15.5089 22.4421 15.3333 22 15.3333H16.0167L18.1834 13.1833C18.3396 13.0284 18.4636 12.844 18.5482 12.6409C18.6328 12.4378 18.6764 12.22 18.6764 12C18.6764 11.78 18.6328 11.5621 18.5482 11.359C18.4636 11.1559 18.3396 10.9716 18.1834 10.8166C18.0284 10.6604 17.8441 10.5364 17.641 10.4518C17.4379 10.3672 17.2201 10.3236 17 10.3236C16.78 10.3236 16.5622 10.3672 16.3591 10.4518C16.156 10.5364 15.9716 10.6604 15.8167 10.8166L10.8167 15.8166ZM0.333374 17C0.333374 20.2963 1.31086 23.5187 3.14221 26.2595C4.97357 29.0003 7.57655 31.1365 10.622 32.398C13.6674 33.6594 17.0185 33.9895 20.2515 33.3464C23.4846 32.7033 26.4543 31.116 28.7852 28.7851C31.116 26.4542 32.7034 23.4845 33.3465 20.2515C33.9896 17.0185 33.6595 13.6674 32.398 10.6219C31.1366 7.57649 29.0004 4.97351 26.2595 3.14215C23.5187 1.3108 20.2964 0.333313 17 0.333313C14.8113 0.333313 12.6441 0.764409 10.622 1.60199C8.59989 2.43957 6.76257 3.66722 5.21493 5.21487C2.08932 8.34047 0.333374 12.5797 0.333374 17ZM30.3334 17C30.3334 19.6371 29.5514 22.2149 28.0863 24.4076C26.6212 26.6002 24.5388 28.3092 22.1025 29.3184C19.6661 30.3275 16.9853 30.5916 14.3988 30.0771C11.8124 29.5626 9.43665 28.2928 7.57195 26.4281C5.70725 24.5634 4.43737 22.1876 3.9229 19.6012C3.40843 17.0148 3.67248 14.3339 4.68165 11.8975C5.69082 9.46119 7.39978 7.3788 9.59244 5.91372C11.7851 4.44863 14.363 3.66665 17 3.66665C20.5363 3.66665 23.9276 5.0714 26.4281 7.57189C28.9286 10.0724 30.3334 13.4638 30.3334 17Z" fill="black"/>
</svg>
