<svg width="38" height="38" viewBox="0 0 20 20" fill="none" xmlns="http://www.w3.org/2000/svg">
<path fillRule="evenodd" clipRule="evenodd" d="M10.0812 0.509041C10.2747 0.852424 10.2485 1.27745 10.0142 1.59442C9.15994 2.75008 8.74888 4.17395 8.85576 5.60706C8.96263 7.04018 9.58032 8.38733 10.5965 9.40351C11.6127 10.4197 12.9598 11.0374 14.3929 11.1443C15.8261 11.2511 17.2499 10.8401 18.4056 9.98585C18.7226 9.75156 19.1476 9.72532 19.491 9.91884C19.8344 10.1124 20.032 10.4895 19.9957 10.882C19.821 12.7734 19.1111 14.5758 17.9494 16.0785C16.7876 17.5811 15.2219 18.7218 13.4354 19.3671C11.649 20.0124 9.71573 20.1355 7.86186 19.7221C6.00799 19.3088 4.31019 18.376 2.96711 17.0329C1.62404 15.6898 0.691239 13.992 0.27787 12.1381C-0.135499 10.2843 -0.0123431 8.35102 0.632928 6.56459C1.2782 4.77816 2.4189 3.21244 3.92154 2.05065C5.42419 0.88886 7.22663 0.179044 9.11797 0.00425972C9.51046 -0.0320113 9.88764 0.165658 10.0812 0.509041ZM7.31638 2.43908C6.53877 2.72043 5.80559 3.12204 5.14487 3.63289C3.94275 4.56232 3.03019 5.81489 2.51398 7.24404C1.99776 8.67318 1.89924 10.2198 2.22993 11.7029C2.56063 13.186 3.30686 14.5442 4.38133 15.6187C5.45579 16.6931 6.81403 17.4394 8.29713 17.7701C9.78022 18.1008 11.3268 18.0022 12.756 17.486C14.1851 16.9698 15.4377 16.0573 16.3671 14.8551C16.878 14.1944 17.2796 13.4612 17.5609 12.6836C16.5078 13.0646 15.3782 13.2233 14.2442 13.1387C12.3334 12.9962 10.5372 12.1726 9.18229 10.8177C7.82738 9.46282 7.00379 7.66661 6.86129 5.7558C6.77673 4.62183 6.93537 3.4922 7.31638 2.43908Z" fill="#7B69AF"/>
</svg>
