<svg width="38" height="38" viewBox="0 0 24 22" fill="none" xmlns="http://www.w3.org/2000/svg">
<path d="M12.7071 0.292893C12.3166 -0.0976311 11.6834 -0.0976311 11.2929 0.292893L7.29289 4.29289C6.90237 4.68342 6.90237 5.31658 7.29289 5.70711C7.68342 6.09763 8.31658 6.09763 8.70711 5.70711L11 3.41421V8C11 8.55229 11.4477 9 12 9C12.5523 9 13 8.55228 13 8V3.41421L15.2929 5.70711C15.6834 6.09763 16.3166 6.09763 16.7071 5.70711C17.0976 5.31658 17.0976 4.68342 16.7071 4.29289L12.7071 0.292893Z" fill="#7B69AF"/>
<path d="M12 11C10.4087 11 8.88258 11.6321 7.75736 12.7574C6.63214 13.8826 6 15.4087 6 17C6 17.5523 6.44772 18 7 18C7.55228 18 8 17.5523 8 17C8 15.9391 8.42143 14.9217 9.17157 14.1716C9.92172 13.4214 10.9391 13 12 13C13.0609 13 14.0783 13.4214 14.8284 14.1716C15.5786 14.9217 16 15.9391 16 17C16 17.5523 16.4477 18 17 18C17.5523 18 18 17.5523 18 17C18 15.4087 17.3679 13.8826 16.2426 12.7574C15.1174 11.6321 13.5913 11 12 11Z" fill="#7B69AF"/>
<path d="M3.51286 8.51286C3.90339 8.12234 4.53655 8.12234 4.92708 8.51286L6.34708 9.93286C6.7376 10.3234 6.7376 10.9566 6.34708 11.3471C5.95655 11.7376 5.32339 11.7376 4.93286 11.3471L3.51286 9.92708C3.12234 9.53655 3.12234 8.90339 3.51286 8.51286Z" fill="#7B69AF"/>
<path d="M1 16C0.447715 16 0 16.4477 0 17C0 17.5523 0.447715 18 1 18H3C3.55228 18 4 17.5523 4 17C4 16.4477 3.55228 16 3 16H1Z" fill="#7B69AF"/>
<path d="M20 17C20 16.4477 20.4477 16 21 16H23C23.5523 16 24 16.4477 24 17C24 17.5523 23.5523 18 23 18H21C20.4477 18 20 17.5523 20 17Z" fill="#7B69AF"/>
<path d="M20.4872 9.92708C20.8777 9.53655 20.8777 8.90339 20.4872 8.51286C20.0967 8.12234 19.4635 8.12234 19.073 8.51286L17.653 9.93286C17.2625 10.3234 17.2625 10.9566 17.653 11.3471C18.0435 11.7376 18.6767 11.7376 19.0672 11.3471L20.4872 9.92708Z" fill="#7B69AF"/>
<path d="M0 21C0 20.4477 0.447715 20 1 20H23C23.5523 20 24 20.4477 24 21C24 21.5523 23.5523 22 23 22H1C0.447715 22 0 21.5523 0 21Z" fill="#7B69AF"/>
</svg>
