<svg width="20" height="20" viewBox="0 0 20 20" fill="none" xmlns="http://www.w3.org/2000/svg">
<g id="Icon Right">
<g id="Shape">
<path fill-rule="evenodd" clip-rule="evenodd" d="M14.9999 1.56555C14.31 1.56555 13.6484 1.8396 13.1606 2.3274L2.74393 12.7441C2.63713 12.8509 2.56137 12.9847 2.52474 13.1312L1.6914 16.4645C1.62041 16.7485 1.70362 17.0489 1.9106 17.2559C2.11758 17.4629 2.41799 17.5461 2.70197 17.4751L6.0353 16.6418C6.18183 16.6051 6.31564 16.5294 6.42244 16.4226L16.8391 6.00591C17.0806 5.76437 17.2722 5.47763 17.403 5.16205C17.5337 4.84647 17.601 4.50823 17.601 4.16665C17.601 3.82507 17.5337 3.48683 17.403 3.17125C17.2722 2.85567 17.0806 2.56893 16.8391 2.3274C16.5976 2.08586 16.3108 1.89427 15.9953 1.76355C15.6797 1.63283 15.3414 1.56555 14.9999 1.56555ZM14.3391 3.50591C14.5144 3.33067 14.752 3.23222 14.9999 3.23222C15.1226 3.23222 15.2441 3.25639 15.3574 3.30335C15.4708 3.35031 15.5738 3.41914 15.6606 3.50591C15.7474 3.59268 15.8162 3.69569 15.8632 3.80906C15.9101 3.92243 15.9343 4.04394 15.9343 4.16665C15.9343 4.28936 15.9101 4.41087 15.8632 4.52424C15.8162 4.63761 15.7474 4.74063 15.6606 4.8274L5.40715 15.0808L3.64516 15.5213L4.08566 13.7594L14.3391 3.50591Z" fill="#2D3648"/>
<path d="M9.99986 15.8333C9.53962 15.8333 9.16652 16.2064 9.16652 16.6667C9.16652 17.1269 9.53962 17.5 9.99986 17.5H17.4999C17.9601 17.5 18.3332 17.1269 18.3332 16.6667C18.3332 16.2064 17.9601 15.8333 17.4999 15.8333H9.99986Z" fill="#2D3648"/>
</g>
</g>
</svg>
